<svg width="24" height="24" viewBox="0 0 24 24" fill="none" xmlns="http://www.w3.org/2000/svg">
<path d="M12 9.3119V12.4498C12 12.6535 12.0809 12.8488 12.2249 12.9928L13.92 14.6879M2.39999 7.0079V6.2399C2.39999 4.11913 4.11922 2.3999 6.23999 2.3999H7.00799M16.992 2.3999L17.76 2.3999C19.8808 2.3999 21.6 4.11913 21.6 6.2399V7.0079M5.85599 18.9119L3.16799 21.5999M20.832 21.5999L18.144 18.9119M20.448 12.7679C20.448 17.4336 16.6657 21.2159 12 21.2159C7.33429 21.2159 3.55199 17.4336 3.55199 12.7679C3.55199 8.1022 7.33429 4.3199 12 4.3199C16.6657 4.3199 20.448 8.1022 20.448 12.7679Z" stroke="#555555" stroke-linecap="round"/>
</svg>
