<svg width="50" height="15" viewBox="0 0 50 15" fill="none" xmlns="http://www.w3.org/2000/svg">
<path d="M1 6.48779C0.447715 6.48779 0 6.93551 0 7.48779C0 8.04008 0.447715 8.48779 1 8.48779V6.48779ZM49.7071 8.1949C50.0976 7.80438 50.0976 7.17121 49.7071 6.78069L43.3431 0.416725C42.9526 0.0262008 42.3195 0.0262008 41.9289 0.416725C41.5384 0.80725 41.5384 1.44041 41.9289 1.83094L47.5858 7.48779L41.9289 13.1446C41.5384 13.5352 41.5384 14.1683 41.9289 14.5589C42.3195 14.9494 42.9526 14.9494 43.3431 14.5589L49.7071 8.1949ZM1 7.48779V8.48779H49V7.48779V6.48779H1V7.48779Z" fill="#2B2B2B"/>
</svg>
