<svg width="55" height="17" viewBox="0 0 55 17" fill="none" xmlns="http://www.w3.org/2000/svg">
<g clip-path="url(#clip0_769_1537)">
<path d="M6.77083 5.93314V7.7093H11.1429C11.0268 8.69186 10.6786 9.44767 10.1369 9.93895C9.51786 10.5436 8.5119 11.2238 6.77083 11.2238C4.10119 11.2238 2.0119 9.10756 2.0119 6.5C2.0119 3.89244 4.0625 1.77616 6.77083 1.77616C8.20238 1.77616 9.28572 2.34302 10.0595 3.06105L11.3363 1.81395C10.253 0.793605 8.78274 0 6.77083 0C3.09524 0 0 2.90988 0 6.5C0 10.0901 3.09524 13 6.77083 13C8.74405 13 10.253 12.3576 11.4137 11.186C12.6131 10.0145 13 8.35174 13 7.02907C13 6.61337 12.9613 6.23546 12.9226 5.93314H6.77083Z" fill="#4285F4"/>
<path d="M18.5 5C16.0491 5 14 6.90541 14 9.5C14 12.0946 16.0089 14 18.5 14C20.9911 14 23 12.1351 23 9.54054C23 6.90541 20.9911 5 18.5 5ZM18.5 12.2568C17.1339 12.2568 15.9687 11.1216 15.9687 9.54054C15.9687 7.91892 17.1339 6.82432 18.5 6.82432C19.8661 6.82432 21.0313 7.91892 21.0313 9.54054C21.0313 11.1216 19.8661 12.2568 18.5 12.2568Z" fill="#EA4335"/>
<path d="M40.1972 5.93168H40.1221C39.7089 5.4472 38.9202 5 37.9061 5C35.8028 5 34 6.78882 34 9.13665C34 11.4472 35.8028 13.2733 37.9061 13.2733C38.9202 13.2733 39.7089 12.8261 40.1221 12.3416H40.1972V12.9379C40.1972 14.5031 39.3333 15.3602 37.9812 15.3602C36.8545 15.3602 36.1784 14.5776 35.8779 13.8696L34.3005 14.5404C34.7512 15.6211 35.9906 17 38.0188 17C40.1596 17 42 15.7329 42 12.677V5.2236H40.2723V5.93168H40.1972ZM38.0939 11.6708C36.8169 11.6708 35.8779 10.5901 35.8779 9.17391C35.8779 7.7205 36.8545 6.67702 38.0939 6.67702C39.3333 6.67702 40.3099 7.75776 40.3099 9.21118C40.3474 10.6273 39.3709 11.6708 38.0939 11.6708Z" fill="#4285F4"/>
<path d="M28.5 5C26.0491 5 24 6.90541 24 9.5C24 12.0946 26.0089 14 28.5 14C30.9911 14 33 12.1351 33 9.54054C33 6.90541 30.9911 5 28.5 5ZM28.5 12.2568C27.1339 12.2568 25.9687 11.1216 25.9687 9.54054C25.9687 7.91892 27.1339 6.82432 28.5 6.82432C29.8661 6.82432 31.0313 7.91892 31.0313 9.54054C31.0313 11.1216 29.8661 12.2568 28.5 12.2568Z" fill="#FBBC05"/>
<path d="M44 0H46V13H44V0Z" fill="#34A853"/>
<path d="M51.2927 12.2568C50.3171 12.2568 49.6537 11.8108 49.1854 10.8784L55 8.40541L54.8049 7.87838C54.4537 6.86486 53.322 5 51.0976 5C48.8732 5 47 6.82432 47 9.5C47 12.0135 48.8341 14 51.2927 14C53.2829 14 54.4146 12.7432 54.922 12.0135L53.439 11C52.9317 11.7703 52.2683 12.2568 51.2927 12.2568ZM51.1756 6.7027C51.9561 6.7027 52.6195 7.10811 52.8146 7.67568L48.9122 9.37838C48.8732 7.51351 50.2 6.7027 51.1756 6.7027Z" fill="#EA4335"/>
</g>
<defs>
<clipPath id="clip0_769_1537">
<rect width="55" height="17" fill="white"/>
</clipPath>
</defs>
</svg>
