<svg width="334" height="100" viewBox="0 0 334 100" fill="none" xmlns="http://www.w3.org/2000/svg">
<path d="M284.57 100V27.2729H304.315V84.0911H333.718V100H284.57Z" fill="#2B2B2B"/>
<path d="M223.872 100H202.566L226.571 27.2729H253.56L277.566 100H256.259L240.35 47.3014H239.782L223.872 100ZM219.895 71.307H259.952V86.0798H219.895V71.307Z" fill="#2B2B2B"/>
<path d="M135.831 100V89.0627L170.206 43.182H135.973V27.2729H195.348V38.2104L160.973 84.0911H195.206V100H135.831Z" fill="#2B2B2B"/>
<path d="M73.3398 100V27.2729H125.755V43.182H93.0842V55.682H123.056V71.5911H93.0842V84.0911H125.613V100H73.3398Z" fill="#2B2B2B"/>
<path d="M27.983 100H0V27.2729H27.6989C35.1799 27.2729 41.643 28.7289 47.0881 31.6409C52.5568 34.5291 56.7708 38.6958 59.7301 44.1409C62.7131 49.5623 64.2046 56.0608 64.2046 63.6366C64.2046 71.2123 62.7249 77.7228 59.7656 83.1678C56.8063 88.5892 52.616 92.7559 47.1946 95.6678C41.7732 98.5561 35.3693 100 27.983 100ZM19.7443 83.2389H27.2727C30.8712 83.2389 33.937 82.6588 36.4702 81.4988C39.027 80.3388 40.9683 78.3383 42.294 75.4974C43.6435 72.6565 44.3182 68.7029 44.3182 63.6366C44.3182 58.5703 43.6316 54.6167 42.2585 51.7758C40.9091 48.9349 38.9205 46.9344 36.2926 45.7744C33.6884 44.6143 30.4924 44.0343 26.7045 44.0343H19.7443V83.2389Z" fill="#2B2B2B"/>
<path d="M152.803 12.653C158.01 14.1893 162.114 18.2958 163.654 23.5103C163.847 24.1632 164.779 24.1632 164.971 23.5103C166.511 18.2958 170.617 14.1893 175.822 12.653C176.476 12.4588 176.476 11.5412 175.822 11.347C170.615 9.81065 166.509 5.7042 164.971 0.489747C164.779 -0.163249 163.847 -0.163249 163.654 0.489747C162.114 5.7042 158.008 9.81065 152.803 11.347C152.149 11.5412 152.149 12.4588 152.803 12.653Z" fill="#2B2B2B"/>
</svg>
