<svg width="22" height="22" viewBox="0 0 22 22" fill="none" xmlns="http://www.w3.org/2000/svg"><path d="M7 11H9.5V9L10 6.5L11.5 5H13H15.5V7.5H13.5L12.5 8.5V11H15.5L15 14H12.5V21H9.5V19.5V16V14.5L9 14H7V11Z" fill="#FFE003"/><rect x="1" y="1" width="20" height="20" rx="3" stroke="#555555"/><path d="M9.4375 20.8789V13.891H6.89844V11.0004H9.4375V8.79726C9.4375 6.29101 10.9304 4.90664 13.2146 4.90664C14.3087 4.90664 15.4531 5.10195 15.4531 5.10195V7.56289H14.1921C12.9499 7.56289 12.5625 8.33373 12.5625 9.12455V11.0004H15.3359L14.8926 13.891H12.5625V20.8789" stroke="#555555" stroke-linejoin="round"/></svg>