<svg width="133" height="56" viewBox="0 0 133 56" fill="none" xmlns="http://www.w3.org/2000/svg"><path d="M13.5682 43H2.375V13.9091H13.4545C16.447 13.9091 19.0322 14.4915 21.2102 15.6562C23.3977 16.8116 25.0833 18.4782 26.267 20.6562C27.4602 22.8248 28.0568 25.4242 28.0568 28.4545C28.0568 31.4848 27.465 34.089 26.2812 36.267C25.0975 38.4356 23.4214 40.1023 21.2528 41.267C19.0843 42.4223 16.5227 43 13.5682 43ZM10.2727 36.2955H13.2841C14.7235 36.2955 15.9498 36.0634 16.9631 35.5994C17.9858 35.1354 18.7623 34.3352 19.2926 33.1989C19.8324 32.0625 20.1023 30.4811 20.1023 28.4545C20.1023 26.428 19.8277 24.8466 19.2784 23.7102C18.7386 22.5739 17.9432 21.7737 16.892 21.3097C15.8504 20.8456 14.572 20.6136 13.0568 20.6136H10.2727V36.2955ZM30.5109 43V13.9091H51.4768V20.2727H38.4087V25.2727H50.3973V31.6364H38.4087V36.6364H51.42V43H30.5109ZM54.3074 43V38.625L68.0574 20.2727H54.3642V13.9091H78.1142V18.2841L64.3642 36.6364H78.0574V43H54.3074ZM88.324 43H79.8013L89.4036 13.9091H100.199L109.801 43H101.279L94.9149 21.9205H94.6876L88.324 43ZM86.7331 31.5227H102.756V37.4318H86.7331V31.5227ZM111.403 43V13.9091H119.301V36.6364H131.062V43H111.403Z" fill="#555555"/><path d="M61.2043 6.27208C63.374 6.91223 65.0839 8.62325 65.7256 10.7959C65.8058 11.068 66.1942 11.068 66.2744 10.7959C66.9161 8.62325 68.6268 6.91223 70.7957 6.27208C71.0681 6.19117 71.0681 5.80883 70.7957 5.72792C68.626 5.08777 66.9153 3.37675 66.2744 1.20406C66.1942 0.93198 65.8058 0.93198 65.7256 1.20406C65.0839 3.37675 63.3732 5.08777 61.2043 5.72792C60.9319 5.80883 60.9319 6.19117 61.2043 6.27208Z" fill="#555555"/></svg>