<svg width="202" height="123" viewBox="0 0 202 123" fill="none" xmlns="http://www.w3.org/2000/svg"><path d="M76.2051 42.2562C76.5847 41.9054 76.7751 41.4093 76.7751 40.7679C76.7751 39.4139 76.0092 38.7369 74.4775 38.7369H72.2346V42.7811H74.4775C75.2502 42.7811 75.8256 42.6057 76.2051 42.2562ZM78.4137 42.5495C78.1178 43.1086 77.6424 43.5622 76.9888 43.9131C76.3367 44.2625 75.4982 44.438 74.4775 44.438H72.2346V49.462H70.2028V37.0801H74.4775C75.4283 37.0801 76.2326 37.2445 76.8916 37.5707C77.5492 37.8969 78.0438 38.3395 78.3699 38.8973C78.696 39.4564 78.859 40.08 78.859 40.7679C78.859 41.3983 78.7111 41.9917 78.4137 42.5495Z" fill="#0C52A5"/><path d="M82.8245 42.889H85.0701C85.8278 42.889 86.4018 42.6985 86.7882 42.3189C87.1732 41.9393 87.3664 41.4281 87.3664 40.7867C87.3664 40.1454 87.1773 39.6438 86.7964 39.2806C86.4169 38.9188 85.8401 38.7379 85.0701 38.7379H82.8245V42.889ZM87.2239 49.4616L84.3741 44.5102H82.8245V49.4616H80.7954V37.0811H85.0701C86.0182 37.0811 86.8238 37.2469 87.4815 37.5799C88.1419 37.9129 88.6337 38.3583 88.9612 38.9161C89.2873 39.4738 89.4503 40.0974 89.4503 40.7867C89.4503 41.5939 89.216 42.3271 88.7461 42.9863C88.2775 43.6454 87.5568 44.0936 86.5827 44.332L89.6462 49.4616H87.2239Z" fill="#0C52A5"/><path d="M99.3079 45.2755L97.2952 39.5211L95.2661 45.2755H99.3079ZM99.8778 46.9324H94.6961L93.8042 49.4622H91.686L96.121 37.0625H98.4721L102.906 49.4622H100.768L99.8778 46.9324Z" fill="#0C52A5"/><path d="M104.995 39.9852C105.558 39.0231 106.324 38.2721 107.293 37.7308C108.26 37.1909 109.319 36.9209 110.471 36.9209C111.789 36.9209 112.961 37.2443 113.988 37.8925C115.016 38.5394 115.761 39.4562 116.224 40.6444H113.784C113.464 39.9907 113.018 39.5042 112.448 39.1835C111.879 38.8628 111.22 38.7025 110.471 38.7025C109.652 38.7025 108.922 38.8861 108.281 39.2548C107.639 39.6234 107.137 40.1524 106.776 40.8403C106.413 41.5297 106.232 42.3314 106.232 43.2455C106.232 44.1595 106.413 44.9613 106.776 45.6492C107.137 46.3385 107.639 46.8703 108.281 47.2444C108.922 47.6185 109.652 47.8063 110.471 47.8063C111.22 47.8063 111.879 47.6446 112.448 47.3253C113.018 47.0046 113.464 46.5167 113.784 45.8644H116.224C115.761 47.0525 115.016 47.9666 113.988 48.608C112.961 49.2493 111.789 49.57 110.471 49.57C109.307 49.57 108.245 49.2987 107.283 48.7587C106.321 48.2188 105.558 47.4664 104.995 46.5044C104.431 45.5437 104.148 44.4569 104.148 43.2455C104.148 42.034 104.431 40.9472 104.995 39.9852Z" fill="#0C52A5"/><path d="M126.434 47.2622C127.077 46.8895 127.577 46.3536 127.94 45.6588C128.302 44.964 128.482 44.1595 128.482 43.2455C128.482 42.3314 128.302 41.5297 127.94 40.8403C127.577 40.1524 127.077 39.6234 126.434 39.2548C125.793 38.8861 125.063 38.7025 124.243 38.7025C123.425 38.7025 122.695 38.8861 122.054 39.2548C121.411 39.6234 120.91 40.1524 120.548 40.8403C120.185 41.5297 120.006 42.3314 120.006 43.2455C120.006 44.1595 120.185 44.964 120.548 45.6588C120.91 46.3536 121.411 46.8895 122.054 47.2622C122.695 47.6363 123.425 47.8241 124.243 47.8241C125.063 47.8241 125.793 47.6363 126.434 47.2622ZM121.065 48.7765C120.096 48.2366 119.33 47.4829 118.767 46.514C118.203 45.5464 117.92 44.4569 117.92 43.2455C117.92 42.034 118.203 40.9472 118.767 39.9852C119.33 39.0231 120.096 38.2721 121.065 37.7308C122.032 37.1909 123.093 36.9209 124.243 36.9209C125.408 36.9209 126.473 37.1909 127.441 37.7308C128.408 38.2721 129.172 39.0231 129.729 39.9852C130.288 40.9472 130.568 42.034 130.568 43.2455C130.568 44.4569 130.288 45.5464 129.729 46.514C129.172 47.4829 128.408 48.2366 127.441 48.7765C126.473 49.3179 125.408 49.5865 124.243 49.5865C123.093 49.5865 122.032 49.3179 121.065 48.7765Z" fill="#0C52A5"/><path d="M148.676 37.0801L145.007 49.462H142.709L140.108 40.0909L137.348 49.462L135.068 49.4798L131.559 37.0801H133.714L136.279 47.1638L139.058 37.0801H141.337L143.92 47.1103L146.503 37.0801H148.676Z" fill="#0C52A5"/><path d="M161.23 49.4628H159.201L153.092 40.2165V49.4628H151.06V37.0645H153.092L159.201 46.293V37.0645H161.23V49.4628Z" fill="#0C52A5"/><path d="M164.269 37.0811H166.299V49.4629H164.269V37.0811Z" fill="#0C52A5"/><path d="M176.215 45.2755L174.202 39.5211L172.173 45.2755H176.215ZM176.785 46.9324H171.603L170.711 49.4622H168.593L173.028 37.0625H175.379L179.813 49.4622H177.675L176.785 46.9324Z" fill="#0C52A5"/><path d="M80.3231 67.2774L75.5318 61.7367V67.2774H73.5013V54.8955H75.5318V60.5431L80.3409 54.8955H82.8879L77.5075 61.0954L82.9769 67.2774H80.3231Z" fill="#0C52A5"/><path d="M86.8008 60.7034H89.0464C89.8041 60.7034 90.3782 60.5129 90.7645 60.1333C91.1495 59.7537 91.3427 59.2439 91.3427 58.6012C91.3427 57.9598 91.1536 57.4582 90.7727 57.0951C90.3932 56.7346 89.8164 56.5524 89.0464 56.5524H86.8008V60.7034ZM91.2002 67.2774L88.3504 62.326H86.8008V67.2774H84.7717V54.8955H89.0464C89.9945 54.8955 90.8002 55.0627 91.4578 55.3943C92.1182 55.7274 92.61 56.1728 92.9375 56.7319C93.2636 57.2897 93.4266 57.9132 93.4266 58.6012C93.4266 59.4097 93.1923 60.1429 92.7224 60.8007C92.2538 61.4613 91.5332 61.9094 90.559 62.1465L93.6226 67.2774H91.2002Z" fill="#0C52A5"/><path d="M102.918 63.0919L100.906 57.3375L98.8767 63.0919H102.918ZM103.488 64.7488H98.3067L97.4148 67.2786H95.2966L99.7316 54.8789H102.083L106.516 67.2786H104.379L103.488 64.7488Z" fill="#0C52A5"/><path d="M123.85 54.8955L120.181 67.2774H117.883L115.283 57.9064L112.522 67.2774L110.242 67.2966L106.734 54.8955H108.889L111.454 64.9792L114.232 54.8955H116.512L119.095 64.9257L121.677 54.8955H123.85Z" fill="#0C52A5"/><path d="M126.592 54.8965H128.621V67.2784H126.592V54.8965Z" fill="#0C52A5"/><path d="M133.679 56.5348V60.1692H137.954V61.826H133.679V65.6208H138.488V67.2776H131.648V54.8779H138.488V56.5348H133.679Z" fill="#0C52A5"/><path d="M141.148 57.7993C141.712 56.8372 142.478 56.0862 143.446 55.5449C144.414 55.0063 145.473 54.7363 146.626 54.7363C147.944 54.7363 149.115 55.0598 150.143 55.7066C151.169 56.3534 151.914 57.2703 152.377 58.4584H149.938C149.618 57.8061 149.171 57.3182 148.601 56.9975C148.031 56.6782 147.374 56.5165 146.626 56.5165C145.805 56.5165 145.075 56.7002 144.433 57.0688C143.794 57.4375 143.291 57.9664 142.929 58.6544C142.566 59.3437 142.385 60.1454 142.385 61.0595C142.385 61.975 142.566 62.7767 142.929 63.4646C143.291 64.154 143.794 64.6843 144.433 65.0598C145.075 65.4326 145.805 65.6203 146.626 65.6203C147.374 65.6203 148.031 65.46 148.601 65.1393C149.171 64.8186 149.618 64.3321 149.938 63.6784H152.377C151.914 64.8666 151.169 65.7807 150.143 66.422C149.115 67.0648 147.944 67.3841 146.626 67.3841C145.461 67.3841 144.399 67.1141 143.437 66.5728C142.476 66.0342 141.712 65.2818 141.148 64.3198C140.583 63.3591 140.303 62.2724 140.303 61.0595C140.303 59.8481 140.583 58.7613 141.148 57.7993Z" fill="#0C52A5"/><path d="M161.572 67.2774L156.781 61.7367V67.2774H154.75V54.8955H156.781V60.5431L161.59 54.8955H164.137L158.758 61.0954L164.226 67.2774H161.572Z" fill="#0C52A5"/><path d="M172.923 63.0919L170.91 57.3375L168.88 63.0919H172.923ZM173.493 64.7488H168.31L167.418 67.2786H165.3L169.735 54.8789H172.086L176.521 67.2786H174.382L173.493 64.7488Z" fill="#0C52A5"/><path d="M87.9808 85.5024C87.9219 85.634 87.837 85.7464 87.7232 85.8423C87.6095 85.9355 87.489 85.9944 87.3574 86.0191C87.2273 86.0438 87.1012 86.026 86.9834 85.9657C86.8656 85.9067 86.7696 85.7889 86.6984 85.6093C86.6505 85.4778 86.5847 85.2188 86.5025 84.8255C86.4189 84.4349 86.334 83.9772 86.2435 83.455C86.1558 82.9315 86.0668 82.3655 85.9777 81.7529C85.8887 81.1403 85.8078 80.5483 85.7366 79.9714C85.6667 79.3944 85.6119 78.8641 85.5763 78.3775C85.542 77.8897 85.5352 77.5046 85.5585 77.2182C85.4982 77.5046 85.4133 77.8787 85.3009 78.3405C85.1872 78.8038 85.0748 79.2916 84.9625 79.8014C84.8501 80.3126 84.7515 80.8142 84.6679 81.3075C84.5843 81.8009 84.5432 82.2244 84.5432 82.5807C84.509 82.6656 84.4364 82.7534 84.3295 82.8479C84.224 82.9438 84.1007 83.0165 83.9637 83.0617C83.8281 83.1097 83.691 83.1151 83.5554 83.0795C83.4184 83.0453 83.2965 82.9438 83.1896 82.778C83.1307 82.6807 83.0471 82.4957 82.9402 82.2161C82.8334 81.9366 82.7238 81.6351 82.6114 81.3075C82.4977 80.9814 82.3949 80.6689 82.3004 80.3715C82.2045 80.0755 82.1442 79.8617 82.1223 79.7315C82.11 79.8494 82.0949 80.0454 82.0757 80.3181C82.0593 80.5922 82.0346 80.9046 82.0058 81.2541C81.9757 81.6049 81.9442 81.9749 81.9072 82.3683C81.8716 82.7588 81.8373 83.1412 81.8003 83.5167C81.7647 83.8908 81.7236 84.2279 81.6756 84.5322C81.6277 84.835 81.5866 85.0749 81.5523 85.253C81.5277 85.3846 81.4592 85.4682 81.3468 85.5024C81.2331 85.5381 81.1153 85.5381 80.9892 85.5024C80.8659 85.4682 80.7508 85.4051 80.6439 85.3147C80.5357 85.227 80.4713 85.1352 80.4467 85.0392C80.5193 84.7556 80.5946 84.3622 80.6782 83.8648C80.7604 83.3646 80.8481 82.8041 80.9358 82.1805C81.0262 81.557 81.1084 80.8978 81.1865 80.203C81.2632 79.5082 81.3235 78.8216 81.3646 78.1446C81.4057 77.4676 81.4304 76.8276 81.4359 76.2218C81.4427 75.6147 81.4153 75.0871 81.355 74.6349C81.4742 74.576 81.6195 74.5348 81.7907 74.5102C81.9634 74.4869 82.1278 74.491 82.2826 74.5198C82.436 74.5499 82.5662 74.6116 82.6731 74.7075C82.7799 74.8007 82.8334 74.9378 82.8334 75.1173C82.8334 75.4736 82.8676 75.9039 82.9306 76.4069C82.9964 76.9125 83.0841 77.4319 83.1896 77.9678C83.2965 78.5023 83.4129 79.0189 83.5376 79.5178C83.6623 80.0152 83.7787 80.4442 83.8856 80.7991C83.9555 80.562 84.0363 80.2263 84.1254 79.7932C84.2144 79.3601 84.3117 78.8915 84.4186 78.3858C84.5268 77.8801 84.6405 77.3621 84.7666 76.8276C84.8912 76.2917 85.0159 75.8025 85.1406 75.3571C85.2653 74.9103 85.3927 74.5307 85.5229 74.2169C85.6544 73.9017 85.7832 73.7098 85.9147 73.6372C86.0339 73.5783 86.1463 73.5509 86.2531 73.5564C86.36 73.5632 86.4559 73.5879 86.5381 73.629C86.6217 73.6701 86.6902 73.7208 86.7436 73.7797C86.7971 73.84 86.8231 73.8866 86.8231 73.9236C86.7998 74.4814 86.8025 75.1145 86.8327 75.8217C86.8628 76.5275 86.9039 77.2606 86.9574 78.0212C87.0108 78.7818 87.0793 79.541 87.1615 80.3016C87.2451 81.0622 87.33 81.7762 87.4204 82.4477C87.5095 83.1193 87.6013 83.7209 87.6958 84.2554C87.7904 84.7898 87.8863 85.2051 87.9808 85.5024Z" fill="#3A86C7"/><path d="M89.7271 84.2748C89.8463 84.2748 89.9737 84.2104 90.1094 84.0789C90.2464 83.95 90.3834 83.7842 90.519 83.5828C90.656 83.3827 90.7862 83.1538 90.9109 82.8989C91.0355 82.6454 91.1452 82.4015 91.2397 82.163C91.3356 81.9273 91.4123 81.7053 91.4726 81.4997C91.5315 81.29 91.5617 81.1352 91.5617 81.0283C91.5617 80.8268 91.5493 80.6665 91.5247 80.5486C91.5027 80.4308 91.4521 80.3239 91.374 80.2307C91.2972 80.1347 91.1821 80.0882 91.0273 80.0882C90.8972 80.0882 90.7478 80.1923 90.582 80.3992C90.4163 80.6048 90.2532 80.8625 90.0929 81.1694C89.9312 81.4778 89.786 81.8149 89.6559 82.1822C89.5257 82.5481 89.4325 82.8852 89.3791 83.1936C89.3257 83.5005 89.3229 83.7568 89.3709 83.9638C89.4175 84.1707 89.5367 84.2748 89.7271 84.2748ZM95.2842 82.0479C95.3787 82.0232 95.476 82.0287 95.5788 82.0657C95.6788 82.1013 95.7295 82.1657 95.7295 82.2617C95.7048 82.5344 95.6171 82.84 95.4623 83.1785C95.3075 83.517 95.1129 83.8336 94.8746 84.1227C94.6375 84.4146 94.3676 84.6599 94.0635 84.8628C93.7607 85.0642 93.4565 85.1656 93.1469 85.1656C92.8263 85.1656 92.5742 85.1026 92.3892 84.9792C92.2056 84.8532 92.0631 84.6901 91.9631 84.4886C91.8617 84.2872 91.7905 84.0611 91.7494 83.8116C91.7069 83.5622 91.6685 83.3128 91.6329 83.062C91.5493 83.2758 91.4466 83.4937 91.3205 83.713C91.1958 83.9336 91.0479 84.1323 90.8766 84.3091C90.704 84.4886 90.5108 84.6366 90.2971 84.7572C90.0833 84.8737 89.8518 84.9326 89.6024 84.9326C89.175 84.9326 88.8722 84.7997 88.694 84.5325C88.5159 84.2652 88.4269 83.9432 88.4269 83.5622C88.4269 83.2292 88.4803 82.8318 88.5872 82.3686C88.694 81.9054 88.8502 81.4586 89.0599 81.0324C89.2667 80.6048 89.5257 80.2389 89.834 79.936C90.1436 79.6332 90.4985 79.4824 90.9026 79.4824C91.0328 79.4824 91.1547 79.503 91.2671 79.5455C91.3808 79.5852 91.4959 79.6359 91.6151 79.6948C91.7932 79.5646 92.0001 79.5002 92.2385 79.5002C92.4522 79.5002 92.6235 79.5331 92.755 79.5989C92.8865 79.6633 92.9509 79.8209 92.9509 80.0703C92.9509 80.4157 92.9359 80.8268 92.9057 81.3092C92.877 81.7902 92.8619 82.2548 92.8619 82.7057C92.8619 83.1593 92.8975 83.5417 92.9687 83.8555C93.04 84.1707 93.1811 84.3283 93.3962 84.3283C93.5154 84.3283 93.6634 84.2529 93.8415 84.1063C94.0196 83.9569 94.2005 83.7664 94.3841 83.5362C94.569 83.3032 94.7403 83.0565 94.9006 82.7961C95.0623 82.5344 95.1883 82.2863 95.2842 82.0479Z" fill="#3A86C7"/><path d="M96.0986 84.0065C96.2178 84.0188 96.3425 83.9599 96.4726 83.8283C96.6028 83.6981 96.7343 83.5282 96.8658 83.3213C96.9946 83.1129 97.1193 82.8827 97.2385 82.6251C97.3577 82.3715 97.4618 82.1249 97.5509 81.8864C97.6399 81.6479 97.7112 81.4355 97.7646 81.245C97.8181 81.0559 97.8441 80.9189 97.8441 80.8353C97.8441 80.812 97.8331 80.7517 97.8085 80.6585C97.7838 80.5612 97.7468 80.4653 97.6934 80.3638C97.6399 80.2624 97.5769 80.1734 97.5057 80.0952C97.4358 80.0185 97.3509 79.9801 97.2577 79.9801C97.1604 79.9801 97.0508 80.0788 96.9261 80.2748C96.8028 80.4707 96.6809 80.7174 96.5617 81.0134C96.4438 81.3108 96.3301 81.6329 96.2233 81.9755C96.1178 82.3208 96.0369 82.6415 95.9835 82.9389C95.9301 83.2363 95.9081 83.4843 95.9205 83.6858C95.9328 83.8886 95.9917 83.9955 96.0986 84.0065ZM98.9306 81.922C98.9306 82.4565 98.9635 82.9896 99.0292 83.5172C99.095 84.0448 99.1621 84.5738 99.2334 85.1028C99.3046 85.6318 99.3731 86.1581 99.4389 86.6884C99.5033 87.216 99.5362 87.7478 99.5362 88.2822C99.5362 88.6851 99.4951 89.062 99.4115 89.4128C99.3279 89.7637 99.1923 90.0693 99.0018 90.331C98.8114 90.5928 98.5634 90.7997 98.2537 90.9546C97.9455 91.1094 97.5646 91.1862 97.1138 91.1862C96.5082 91.1862 96.0328 91.0258 95.6889 90.7065C95.345 90.3845 95.1724 89.9158 95.1724 89.2977C95.1724 89.1086 95.2121 88.84 95.2889 88.496C95.3656 88.152 95.4752 87.804 95.6177 87.4545C95.7602 87.1037 95.9301 86.7981 96.126 86.5363C96.3219 86.2745 96.5439 86.132 96.7932 86.1087C96.8658 86.0964 96.9754 86.1115 97.1234 86.1526C97.2714 86.1951 97.3454 86.2622 97.3454 86.3595C97.0138 86.7391 96.7466 87.1804 96.5439 87.6861C96.3425 88.1904 96.2411 88.7098 96.2411 89.2443C96.2411 89.3758 96.2534 89.517 96.2767 89.6732C96.3 89.8253 96.3452 89.9665 96.411 90.0898C96.4754 90.2159 96.5617 90.3187 96.6685 90.4023C96.7754 90.4859 96.9124 90.527 97.0782 90.527C97.3043 90.527 97.4892 90.4489 97.6304 90.2968C97.7742 90.1419 97.8866 89.9583 97.9688 89.7445C98.0523 89.5307 98.1058 89.3087 98.1291 89.0771C98.1537 88.8455 98.1647 88.6481 98.1647 88.4823C98.1647 87.5792 98.0907 86.6912 97.9427 85.8127C97.7934 84.937 97.7016 84.0462 97.6673 83.1458C97.5838 83.324 97.4824 83.4953 97.3632 83.6611C97.2454 83.8269 97.1111 83.9777 96.9631 84.1147C96.8138 84.2518 96.6507 84.3614 96.4726 84.4436C96.2959 84.5272 96.0986 84.5684 95.8862 84.5684C95.482 84.5684 95.2053 84.434 95.0573 84.1682C94.9093 83.9023 94.834 83.5967 94.834 83.2514C94.834 82.9786 94.8902 82.6264 95.0039 82.1948C95.1162 81.7603 95.2793 81.3437 95.4944 80.9408C95.7067 80.5379 95.9616 80.1898 96.2589 79.9006C96.5562 79.6087 96.8823 79.4648 97.2385 79.4648C97.4988 79.4648 97.7139 79.5251 97.8797 79.6512C98.0469 79.7746 98.1825 79.9513 98.2907 80.1761H98.4949C98.5826 80.1761 98.6703 80.1843 98.7525 80.2035C98.836 80.2213 98.91 80.2515 98.9758 80.2912C99.0402 80.3337 99.0731 80.3899 99.0731 80.4612C99.0731 80.6982 99.0484 80.9394 99.0018 81.182C98.9552 81.4259 98.9306 81.6726 98.9306 81.922Z" fill="#3A86C7"/><path d="M101.656 83.8284C101.761 83.8284 101.875 83.7434 101.994 83.5721C102.112 83.3995 102.231 83.1774 102.351 82.9061C102.468 82.6334 102.582 82.3346 102.689 82.0098C102.796 81.685 102.893 81.3739 102.982 81.0779C103.071 80.7819 103.145 80.5133 103.206 80.2694C103.264 80.0295 103.306 79.8596 103.33 79.7637C103.247 79.6705 103.152 79.5746 103.045 79.48C102.938 79.3868 102.819 79.3388 102.689 79.3388C102.463 79.3388 102.267 79.4896 102.1 79.7911C101.934 80.0926 101.796 80.4407 101.683 80.8381C101.57 81.2342 101.486 81.6247 101.433 82.0098C101.379 82.3949 101.352 82.669 101.352 82.8335C101.352 82.8705 101.359 82.9417 101.371 83.0486C101.382 83.1555 101.402 83.2679 101.433 83.3857C101.461 83.5036 101.496 83.6078 101.53 83.6955C101.567 83.7845 101.608 83.8284 101.656 83.8284ZM104.88 80.0515C104.88 80.8121 104.896 81.5658 104.933 82.3154C104.957 82.7183 104.998 83.1459 105.057 83.5968C105.115 84.049 105.191 84.4931 105.281 84.933C105.369 85.3715 105.469 85.7854 105.583 86.1718C105.695 86.5569 105.817 86.8858 105.948 87.1599C105.735 87.2559 105.557 87.3326 105.413 87.3929C105.272 87.4518 105.081 87.4751 104.843 87.4614C104.677 87.4395 104.532 87.312 104.407 87.0791C104.282 86.8488 104.176 86.5652 104.087 86.2335C103.997 85.9019 103.923 85.5318 103.863 85.1289C103.804 84.7247 103.759 84.3355 103.73 83.9627C103.7 83.5886 103.677 83.246 103.659 82.939C103.641 82.6293 103.632 82.3977 103.632 82.2428C103.549 82.4909 103.456 82.754 103.356 83.0267C103.255 83.2994 103.127 83.5461 102.974 83.7654C102.819 83.986 102.631 84.1696 102.412 84.3176C102.193 84.467 101.929 84.5424 101.62 84.5424C101.109 84.5424 100.738 84.3807 100.506 84.06C100.275 83.7393 100.158 83.3474 100.158 82.8855C100.158 82.5292 100.206 82.1222 100.302 81.6645C100.397 81.2068 100.543 80.7737 100.738 80.3639C100.934 79.9542 101.186 79.6061 101.496 79.321C101.803 79.036 102.178 78.8935 102.616 78.8935C102.784 78.8935 102.929 78.9085 103.055 78.9387C103.178 78.9675 103.312 79.0305 103.454 79.1237C103.491 78.9949 103.528 78.7578 103.57 78.4124C103.612 78.0685 103.659 77.6738 103.712 77.2284C103.766 76.7816 103.822 76.3143 103.882 75.8209C103.941 75.3276 104.007 74.8712 104.078 74.4478C104.148 74.0284 104.221 73.6639 104.292 73.361C104.363 73.0595 104.44 72.8718 104.524 72.8005C104.582 72.7402 104.651 72.7059 104.728 72.6936C104.806 72.6813 104.884 72.6758 104.969 72.6758C105.063 72.6758 105.168 72.6977 105.281 72.7375C105.394 72.7799 105.45 72.8608 105.45 72.9786C105.4 73.1801 105.344 73.5487 105.281 74.0846C105.215 74.6163 105.152 75.2275 105.094 75.91C105.033 76.5925 104.984 77.301 104.941 78.0369C104.899 78.7742 104.88 79.4457 104.88 80.0515Z" fill="#3A86C7"/><path d="M107.166 84.2748C107.285 84.2748 107.413 84.2104 107.548 84.0789C107.685 83.95 107.822 83.7842 107.958 83.5828C108.095 83.3827 108.225 83.1538 108.35 82.8989C108.475 82.6454 108.584 82.4015 108.679 82.163C108.775 81.9273 108.851 81.7053 108.912 81.4997C108.971 81.29 109.001 81.1352 109.001 81.0283C109.001 80.8268 108.988 80.6665 108.964 80.5486C108.942 80.4308 108.891 80.3239 108.813 80.2307C108.736 80.1347 108.621 80.0882 108.466 80.0882C108.336 80.0882 108.187 80.1923 108.021 80.3992C107.855 80.6048 107.692 80.8625 107.532 81.1694C107.37 81.4778 107.225 81.8149 107.095 82.1822C106.965 82.5481 106.872 82.8852 106.818 83.1936C106.765 83.5005 106.762 83.7568 106.81 83.9638C106.857 84.1707 106.976 84.2748 107.166 84.2748ZM112.723 82.0479C112.818 82.0232 112.915 82.0287 113.018 82.0657C113.118 82.1013 113.169 82.1657 113.169 82.2617C113.144 82.5344 113.056 82.84 112.901 83.1785C112.747 83.517 112.552 83.8336 112.314 84.1227C112.077 84.4146 111.807 84.6599 111.503 84.8628C111.2 85.0642 110.896 85.1656 110.586 85.1656C110.265 85.1656 110.013 85.1026 109.828 84.9792C109.645 84.8532 109.502 84.6901 109.402 84.4886C109.301 84.2872 109.23 84.0611 109.188 83.8116C109.146 83.5622 109.108 83.3128 109.072 83.062C108.988 83.2758 108.886 83.4937 108.76 83.713C108.635 83.9336 108.487 84.1323 108.316 84.3091C108.143 84.4886 107.95 84.6366 107.736 84.7572C107.522 84.8737 107.291 84.9326 107.042 84.9326C106.614 84.9326 106.311 84.7997 106.133 84.5325C105.955 84.2652 105.866 83.9432 105.866 83.5622C105.866 83.2292 105.919 82.8318 106.026 82.3686C106.133 81.9054 106.289 81.4586 106.499 81.0324C106.706 80.6048 106.965 80.2389 107.273 79.936C107.583 79.6332 107.938 79.4824 108.342 79.4824C108.472 79.4824 108.594 79.503 108.706 79.5455C108.82 79.5852 108.935 79.6359 109.054 79.6948C109.232 79.5646 109.439 79.5002 109.678 79.5002C109.891 79.5002 110.063 79.5331 110.194 79.5989C110.326 79.6633 110.39 79.8209 110.39 80.0703C110.39 80.4157 110.375 80.8268 110.345 81.3092C110.316 81.7902 110.301 82.2548 110.301 82.7057C110.301 83.1593 110.337 83.5417 110.408 83.8555C110.479 84.1707 110.62 84.3283 110.835 84.3283C110.955 84.3283 111.102 84.2529 111.281 84.1063C111.459 83.9569 111.64 83.7664 111.823 83.5362C112.008 83.3032 112.179 83.0565 112.34 82.7961C112.501 82.5344 112.627 82.2863 112.723 82.0479Z" fill="#3A86C7"/><path d="M114.446 73.584C114.374 73.9293 114.315 74.3035 114.268 74.7077C114.22 75.1107 114.179 75.5218 114.142 75.937C114.108 76.3523 114.08 76.762 114.063 77.1649C114.045 77.5692 114.03 77.9502 114.019 78.3051C114.089 78.0448 114.157 77.7515 114.223 77.4253C114.289 77.0978 114.345 76.7648 114.393 76.4263C114.439 76.0878 114.475 75.7548 114.5 75.4286C114.523 75.1011 114.534 74.7968 114.534 74.5118C114.534 74.3446 114.527 74.187 114.508 74.039C114.49 73.891 114.47 73.7388 114.446 73.584ZM116.78 81.5311C116.91 81.5421 117.011 81.5901 117.082 81.6723C117.154 81.7559 117.182 81.8381 117.17 81.9217C117.136 82.1492 117.038 82.4384 116.877 82.7961C116.717 83.151 116.51 83.4991 116.253 83.8376C115.999 84.1775 115.701 84.4748 115.363 84.7297C115.024 84.9833 114.659 85.1121 114.268 85.1121C113.971 85.1121 113.726 85.034 113.528 84.8791C113.334 84.7256 113.175 84.5201 113.056 84.2652C112.938 84.0089 112.849 83.7252 112.79 83.41C112.73 83.0948 112.691 82.7782 112.673 82.4576C112.656 82.1355 112.647 81.8285 112.647 81.5311V80.7815C112.647 80.5321 112.653 80.1593 112.664 79.6605C112.676 79.1617 112.704 78.6121 112.745 78.0105C112.786 77.4116 112.846 76.799 112.924 76.1686C112.999 75.5382 113.102 74.9654 113.226 74.4487C113.35 73.9321 113.508 73.5072 113.698 73.1742C113.887 72.8426 114.113 72.6768 114.374 72.6768C114.589 72.6768 114.755 72.7275 114.874 72.8261C114.992 72.9275 115.085 73.055 115.151 73.2099C115.215 73.3647 115.256 73.5333 115.274 73.7183C115.292 73.8992 115.301 74.0691 115.301 74.224C115.301 74.6625 115.282 75.1134 115.248 75.5752C115.212 76.0384 115.146 76.4989 115.05 76.9539C114.956 77.4116 114.826 77.8556 114.659 78.2887C114.493 78.7204 114.279 79.1274 114.019 79.507V81.4448C114.019 82.0272 114.03 82.5247 114.054 82.94C114.078 83.3552 114.116 83.6773 114.17 83.9102C114.223 84.1405 114.309 84.2556 114.427 84.2556C114.546 84.2556 114.712 84.1734 114.927 84.0062C115.141 83.8403 115.36 83.6293 115.586 83.3758C115.811 83.1195 116.03 82.829 116.244 82.5028C116.459 82.1766 116.637 81.8518 116.78 81.5311Z" fill="#3A86C7"/><path d="M118.706 79.7482C118.54 79.7728 118.403 79.8825 118.296 80.0785C118.189 80.2758 118.103 80.5033 118.039 80.765C117.973 81.0254 117.925 81.2899 117.895 81.5572C117.866 81.8258 117.851 82.0354 117.851 82.1889C117.851 82.2259 117.856 82.2643 117.869 82.3054C117.88 82.3465 117.917 82.3685 117.976 82.3685C118.118 82.3685 118.267 82.2287 118.421 81.9477C118.574 81.6695 118.699 81.3653 118.795 81.0323C118.889 80.6979 118.937 80.3991 118.937 80.1319C118.937 79.8647 118.859 79.7372 118.706 79.7482ZM119.133 84.5228C119.466 84.5228 119.78 84.4049 120.077 84.1678C120.375 83.9294 120.638 83.6539 120.869 83.3387C121.101 83.0249 121.298 82.7056 121.458 82.3863C121.619 82.0642 121.734 81.823 121.805 81.6558C121.935 81.6791 122.039 81.7381 122.116 81.8326C122.194 81.9285 122.22 82.0286 122.197 82.1355C122.102 82.5288 121.95 82.9098 121.743 83.2757C121.534 83.6457 121.295 83.9705 121.021 84.2542C120.747 84.5379 120.446 84.764 120.113 84.9312C119.78 85.0984 119.436 85.1833 119.08 85.1833C118.677 85.1833 118.321 85.1121 118.011 84.9695C117.703 84.8257 117.441 84.631 117.228 84.3816C117.014 84.1322 116.853 83.843 116.747 83.5169C116.64 83.1907 116.586 82.8495 116.586 82.4918C116.586 82.2081 116.622 81.8765 116.693 81.4941C116.764 81.1145 116.881 80.7541 117.04 80.417C117.2 80.0785 117.412 79.7907 117.673 79.5522C117.934 79.3151 118.255 79.1973 118.635 79.1973C118.825 79.1973 118.991 79.2384 119.133 79.3206C119.276 79.4056 119.392 79.5152 119.48 79.6523C119.57 79.7879 119.635 79.9387 119.677 80.1059C119.717 80.2717 119.739 80.4444 119.739 80.6225C119.739 80.8349 119.695 81.0679 119.605 81.3173C119.517 81.5654 119.392 81.8038 119.232 82.0286C119.072 82.2547 118.884 82.4425 118.67 82.5905C118.456 82.7398 118.225 82.8125 117.976 82.8125H117.887C117.897 82.9454 117.929 83.1071 117.976 83.3004C118.024 83.4908 118.098 83.6772 118.199 83.8568C118.299 84.0377 118.424 84.1939 118.572 84.3254C118.721 84.4584 118.907 84.5228 119.133 84.5228Z" fill="#3A86C7"/><path d="M125.774 83.6322C125.916 83.6322 126.071 83.539 126.237 83.3485C126.402 83.158 126.568 82.9319 126.735 82.6715C126.901 82.4084 127.05 82.1356 127.179 81.852C127.311 81.5655 127.412 81.3216 127.483 81.1215C127.494 81.1215 127.53 81.1366 127.59 81.1654C127.649 81.1955 127.705 81.2366 127.759 81.2901C127.812 81.3435 127.857 81.4093 127.893 81.4861C127.929 81.5628 127.929 81.656 127.893 81.7629C127.822 81.989 127.723 82.2494 127.598 82.5454C127.474 82.8428 127.323 83.121 127.145 83.3814C126.967 83.6431 126.763 83.8596 126.531 84.0323C126.3 84.205 126.046 84.2913 125.774 84.2913C125.489 84.2913 125.26 84.2091 125.087 84.0433C124.916 83.8761 124.775 83.6678 124.668 83.4197C124.562 83.1689 124.476 82.899 124.41 82.6084C124.346 82.3179 124.28 82.0479 124.214 81.7985C124.149 81.5477 124.073 81.3408 123.983 81.175C123.894 81.0091 123.772 80.9242 123.618 80.9242C123.405 80.9242 123.25 81.0324 123.155 81.2462C123.061 81.4586 122.995 81.719 122.959 82.0205C122.924 82.3234 122.911 82.6345 122.924 82.9565C122.936 83.2758 122.942 83.5444 122.942 83.7582C122.942 83.9117 122.955 84.0625 122.985 84.2119C123.016 84.3599 123.024 84.4969 123.011 84.623C123.002 84.745 122.947 84.8477 122.852 84.9245C122.758 85.0026 122.591 85.0396 122.354 85.0396C122.069 85.0396 121.862 84.9135 121.73 84.6572C121.599 84.4023 121.511 84.0995 121.463 83.7486C121.415 83.3992 121.397 83.0415 121.408 82.6797C121.421 82.3179 121.428 82.0356 121.428 81.8341L121.445 79.625C121.445 79.4701 121.511 79.3632 121.64 79.3043C121.771 79.2454 121.903 79.2139 122.033 79.2139C122.247 79.2139 122.404 79.2714 122.504 79.3838C122.604 79.4962 122.674 79.636 122.71 79.8018C122.746 79.969 122.758 80.1499 122.746 80.3458C122.733 80.5418 122.726 80.7172 122.726 80.8707C122.883 80.598 123.039 80.4116 123.199 80.3102C123.359 80.2088 123.522 80.1595 123.69 80.1595C123.95 80.1595 124.166 80.2458 124.339 80.4185C124.512 80.5912 124.654 80.8063 124.768 81.0626C124.88 81.3202 124.975 81.5984 125.053 81.8944C125.128 82.1946 125.204 82.4714 125.275 82.729C125.346 82.9839 125.417 83.2005 125.489 83.3731C125.56 83.5472 125.654 83.6322 125.774 83.6322Z" fill="#3A86C7"/><path d="M128.251 84.2748C128.37 84.2748 128.498 84.2104 128.634 84.0789C128.771 83.95 128.908 83.7842 129.043 83.5828C129.18 83.3827 129.31 83.1538 129.435 82.8989C129.56 82.6454 129.669 82.4015 129.764 82.163C129.86 81.9273 129.936 81.7053 129.997 81.4997C130.056 81.29 130.086 81.1352 130.086 81.0283C130.086 80.8268 130.073 80.6665 130.049 80.5486C130.027 80.4308 129.976 80.3239 129.898 80.2307C129.821 80.1347 129.706 80.0882 129.551 80.0882C129.421 80.0882 129.272 80.1923 129.106 80.3992C128.94 80.6048 128.777 80.8625 128.617 81.1694C128.455 81.4778 128.31 81.8149 128.18 82.1822C128.05 82.5481 127.957 82.8852 127.903 83.1936C127.85 83.5005 127.847 83.7568 127.895 83.9638C127.942 84.1707 128.061 84.2748 128.251 84.2748ZM132.17 84.4174C132.229 84.6791 132.188 84.8696 132.045 84.9875C131.903 85.1053 131.778 85.1656 131.671 85.1656C131.411 85.1656 131.19 85.1026 131.012 84.9792C130.834 84.8532 130.687 84.6901 130.575 84.4886C130.463 84.2872 130.374 84.0611 130.309 83.8116C130.243 83.5622 130.193 83.3128 130.157 83.062C130.073 83.2758 129.971 83.4937 129.845 83.713C129.72 83.9336 129.572 84.1323 129.401 84.3091C129.228 84.4886 129.035 84.6366 128.821 84.7572C128.607 84.8737 128.376 84.9326 128.127 84.9326C127.699 84.9326 127.396 84.7997 127.218 84.5325C127.04 84.2652 126.951 83.9432 126.951 83.5622C126.951 83.2292 127.004 82.8318 127.111 82.3686C127.218 81.9054 127.374 81.4586 127.584 81.0324C127.791 80.6048 128.05 80.2389 128.358 79.936C128.668 79.6332 129.023 79.4824 129.427 79.4824C129.557 79.4824 129.679 79.503 129.791 79.5455C129.905 79.5852 130.02 79.6359 130.139 79.6948C130.317 79.5646 130.524 79.5002 130.763 79.5002C130.976 79.5002 131.148 79.5331 131.279 79.5989C131.411 79.6633 131.475 79.8209 131.475 80.0703C131.475 80.4157 131.463 80.8323 131.439 81.3257C131.416 81.819 131.416 82.2946 131.439 82.7523C131.463 83.21 131.526 83.6006 131.627 83.9267C131.727 84.2529 131.908 84.4174 132.17 84.4174Z" fill="#3A86C7"/><path d="M139.885 85.3428C139.991 85.4496 140.137 85.4949 140.321 85.4771C140.505 85.4592 140.655 85.4154 140.775 85.3428C141.594 84.8933 142.179 84.3094 142.53 83.5982C142.88 82.8856 143.054 82.0537 143.054 81.1026C143.054 80.6983 142.997 80.2598 142.878 79.7843C142.758 79.3101 142.59 78.8291 142.369 78.3426C142.149 77.8547 141.888 77.3846 141.586 76.9351C141.284 76.4829 140.947 76.0813 140.58 75.7305C140.211 75.381 139.813 75.1015 139.387 74.8945C138.958 74.6876 138.519 74.5821 138.069 74.5821C137.914 74.5821 137.792 74.6177 137.703 74.6903C137.614 74.7602 137.545 74.8534 137.499 74.9658C137.451 75.0796 137.418 75.2015 137.4 75.3303C137.382 75.4619 137.374 75.5866 137.374 75.7058C137.374 76.0252 137.4 76.3705 137.453 76.7392C137.507 77.1064 137.574 77.4792 137.659 77.8519C137.742 78.2261 137.833 78.592 137.934 78.9483C138.034 79.3046 138.127 79.6417 138.21 79.9624C138.234 79.6787 138.252 79.3896 138.263 79.0977C138.275 78.8085 138.281 78.5194 138.281 78.2343C138.281 78.1521 138.263 78.1137 138.229 78.1192C138.193 78.1247 138.151 78.1055 138.103 78.0575C138.127 77.9013 138.144 77.7327 138.156 77.5491C138.169 77.3654 138.193 77.19 138.229 77.0242C138.263 76.8584 138.319 76.7145 138.397 76.5953C138.475 76.4774 138.596 76.4007 138.763 76.365C138.892 76.3417 138.995 76.3609 139.065 76.4267C139.136 76.4925 139.189 76.5761 139.226 76.6761C139.262 76.7775 139.285 76.8872 139.296 77.005C139.309 77.1256 139.315 77.2257 139.315 77.3093C139.315 78.2466 139.296 79.1785 139.262 80.1063C139.226 81.0314 139.208 81.9646 139.208 82.9034C139.208 83.2364 139.224 83.5653 139.252 83.8915C139.282 84.219 139.296 84.5424 139.296 84.8617C139.296 84.9933 139.262 85.0879 139.189 85.1468C139.309 85.1235 139.436 85.1235 139.573 85.1468C139.709 85.1715 139.813 85.2359 139.885 85.3428ZM138.049 74.0654C138.892 74.0654 139.691 74.2778 140.446 74.6972C141.199 75.1207 141.861 75.6716 142.431 76.3541C143.001 77.0379 143.453 77.8136 143.786 78.6811C144.118 79.5472 144.285 80.4256 144.285 81.3164C144.285 81.8523 144.178 82.4059 143.964 82.9815C143.749 83.5598 143.456 84.0874 143.082 84.5698C142.708 85.0495 142.265 85.4442 141.754 85.7525C141.244 86.0622 140.698 86.2171 140.117 86.2171C140.021 86.2171 139.896 86.1993 139.743 86.1636C139.588 86.1266 139.44 86.0759 139.296 86.0115C139.155 85.9457 139.03 85.8663 138.924 85.7703C138.817 85.6758 138.763 85.562 138.763 85.4318C138.763 85.3715 138.797 85.3181 138.87 85.2729C138.763 85.2838 138.641 85.2838 138.504 85.2729C138.369 85.2592 138.259 85.2057 138.175 85.1125C138.151 85.0769 138.13 85.0084 138.112 84.907C138.095 84.8055 138.084 84.6959 138.077 84.5767C138.071 84.4588 138.062 84.3437 138.049 84.23C138.037 84.1162 138.032 84.0367 138.032 83.9901C137.962 83.3008 137.837 82.6128 137.659 81.9221C137.479 81.2342 137.296 80.5462 137.107 79.8555C136.916 79.1676 136.751 78.4755 136.607 77.7807C136.466 77.0859 136.393 76.3883 136.393 75.688C136.393 75.1426 136.537 74.7356 136.822 74.467C137.107 74.1997 137.516 74.0654 138.049 74.0654Z" fill="#3A86C7"/><path d="M147.106 79.7482C146.941 79.7728 146.804 79.8825 146.697 80.0785C146.59 80.2758 146.504 80.5033 146.439 80.765C146.373 81.0254 146.325 81.2899 146.295 81.5572C146.266 81.8258 146.251 82.0354 146.251 82.1889C146.251 82.2259 146.257 82.2643 146.269 82.3054C146.28 82.3465 146.317 82.3685 146.376 82.3685C146.519 82.3685 146.668 82.2287 146.821 81.9477C146.975 81.6695 147.1 81.3653 147.195 81.0323C147.29 80.6979 147.338 80.3991 147.338 80.1319C147.338 79.8647 147.26 79.7372 147.106 79.7482ZM147.534 84.5228C147.867 84.5228 148.181 84.4049 148.478 84.1678C148.775 83.9294 149.038 83.6539 149.27 83.3387C149.501 83.0249 149.699 82.7056 149.859 82.3863C150.019 82.0642 150.134 81.823 150.206 81.6558C150.336 81.6791 150.44 81.7381 150.517 81.8326C150.595 81.9285 150.621 82.0286 150.597 82.1355C150.503 82.5288 150.351 82.9098 150.144 83.2757C149.934 83.6457 149.696 83.9705 149.422 84.2542C149.148 84.5379 148.846 84.764 148.513 84.9312C148.181 85.0984 147.837 85.1833 147.48 85.1833C147.078 85.1833 146.721 85.1121 146.412 84.9695C146.103 84.8257 145.842 84.631 145.628 84.3816C145.414 84.1322 145.254 83.843 145.147 83.5169C145.04 83.1907 144.987 82.8495 144.987 82.4918C144.987 82.2081 145.022 81.8765 145.094 81.4941C145.165 81.1145 145.281 80.7541 145.44 80.417C145.601 80.0785 145.813 79.7907 146.073 79.5522C146.335 79.3151 146.656 79.1973 147.035 79.1973C147.226 79.1973 147.391 79.2384 147.534 79.3206C147.676 79.4056 147.793 79.5152 147.88 79.6523C147.971 79.7879 148.035 79.9387 148.078 80.1059C148.117 80.2717 148.139 80.4444 148.139 80.6225C148.139 80.8349 148.096 81.0679 148.005 81.3173C147.917 81.5654 147.793 81.8038 147.632 82.0286C147.472 82.2547 147.284 82.4425 147.071 82.5905C146.857 82.7398 146.625 82.8125 146.376 82.8125H146.287C146.298 82.9454 146.33 83.1071 146.376 83.3004C146.424 83.4908 146.498 83.6772 146.599 83.8568C146.699 84.0377 146.824 84.1939 146.972 84.3254C147.121 84.4584 147.308 84.5228 147.534 84.5228Z" fill="#3A86C7"/><path d="M153.254 79.4278C153.135 79.4278 152.98 79.5086 152.789 79.6676C152.599 79.8279 152.41 80.0184 152.219 80.2377C152.029 80.4583 151.855 80.6749 151.695 80.8873C151.534 81.1024 151.425 81.2628 151.366 81.3697C151.496 81.4176 151.59 81.5067 151.651 81.6369C151.817 81.6013 152.003 81.5177 152.211 81.3889C152.419 81.2573 152.614 81.1024 152.799 80.9243C152.984 80.7461 153.137 80.5529 153.262 80.3446C153.387 80.139 153.45 79.9444 153.45 79.7663C153.45 79.7073 153.435 79.6347 153.404 79.5525C153.374 79.4689 153.325 79.4278 153.254 79.4278ZM153.573 84.0941C153.799 84.1078 154.022 84.0352 154.242 83.8817C154.462 83.7282 154.659 83.5432 154.838 83.3294C155.016 83.1142 155.165 82.9018 155.283 82.688C155.402 82.4756 155.473 82.3084 155.498 82.1892C155.509 82.1892 155.539 82.2015 155.586 82.2248C155.634 82.2495 155.684 82.2783 155.738 82.3139C155.793 82.3495 155.836 82.3948 155.871 82.4482C155.908 82.5017 155.919 82.5633 155.908 82.6346C155.871 82.8127 155.793 83.0348 155.666 83.302C155.542 83.5692 155.379 83.8282 155.176 84.079C154.975 84.3271 154.722 84.5409 154.421 84.7177C154.117 84.8972 153.77 84.9863 153.378 84.9863C153.14 84.9863 152.924 84.9328 152.728 84.8245C152.532 84.7177 152.354 84.582 152.195 84.4162C152.033 84.2503 151.878 84.0722 151.73 83.8817C151.581 83.6912 151.43 83.5089 151.277 83.3294C151.288 83.5185 151.312 83.7337 151.347 83.9708C151.384 84.2079 151.396 84.4285 151.384 84.6299C151.371 84.8314 151.315 85.0041 151.214 85.1466C151.114 85.2878 150.92 85.3604 150.635 85.3604C150.541 85.3604 150.435 85.3439 150.323 85.3152C150.209 85.285 150.119 85.2343 150.046 85.1658C149.975 85.1055 149.924 84.9081 149.896 84.5765C149.865 84.2449 149.849 83.8817 149.842 83.4897C149.837 83.0978 149.834 82.7209 149.834 82.3591V81.6191C149.834 80.324 149.852 79.0358 149.887 77.7531C149.922 76.4704 149.941 75.1808 149.941 73.8871C149.941 73.7446 149.937 73.6103 149.931 73.4869C149.924 73.3608 149.941 73.2567 149.975 73.1745C150.012 73.0909 150.076 73.0265 150.172 72.9785C150.267 72.9305 150.409 72.9072 150.6 72.9072C150.718 72.9072 150.837 72.9305 150.955 72.9785C151.074 73.0265 151.145 73.1155 151.17 73.2457C151.216 73.5541 151.249 73.8967 151.267 74.2694C151.285 74.6436 151.288 75.1081 151.277 75.6604C151.264 76.2114 151.252 76.8788 151.24 77.6544C151.227 78.4328 151.223 79.3867 151.223 80.5145C151.341 80.361 151.478 80.198 151.632 80.0253C151.786 79.8526 151.954 79.6936 152.132 79.5525C152.31 79.41 152.496 79.2907 152.692 79.1962C152.888 79.1016 153.093 79.055 153.307 79.055C153.557 79.055 153.773 79.1208 153.957 79.2578C154.14 79.3949 154.233 79.6004 154.233 79.8732C154.233 80.1116 154.153 80.3583 153.992 80.6118C153.832 80.8681 153.629 81.1024 153.387 81.3162C153.143 81.53 152.884 81.7109 152.611 81.8589C152.339 82.0083 152.095 82.1056 151.882 82.1536C151.954 82.2851 152.048 82.4564 152.167 82.6702C152.285 82.884 152.422 83.0978 152.577 83.3116C152.73 83.524 152.893 83.709 153.066 83.8639C153.237 84.0187 153.407 84.0941 153.573 84.0941Z" fill="#3A86C7"/><path d="M156.251 78.288C156.049 78.288 155.937 78.2414 155.912 78.1455C155.888 78.0509 155.877 77.9194 155.877 77.7535C155.877 77.5521 155.912 77.3767 155.984 77.2287C156.053 77.0793 156.21 77.0039 156.447 77.0039C156.577 77.0039 156.689 77.008 156.785 77.0135C156.88 77.0204 156.939 77.0875 156.963 77.2191C156.974 77.315 156.969 77.4246 156.945 77.548C156.921 77.674 156.88 77.7892 156.821 77.8961C156.76 78.003 156.68 78.0948 156.58 78.1715C156.48 78.2496 156.369 78.288 156.251 78.288ZM159.386 81.2975C159.48 81.2975 159.576 81.329 159.671 81.3893C159.765 81.4482 159.808 81.5126 159.795 81.5839C159.76 81.8813 159.661 82.2075 159.501 82.5638C159.34 82.9201 159.138 83.2558 158.896 83.5697C158.653 83.8862 158.373 84.1453 158.058 84.3549C157.744 84.5619 157.414 84.6646 157.07 84.6646C156.643 84.6646 156.319 84.5358 156.1 84.2741C155.879 84.0123 155.725 83.6944 155.637 83.3216C155.547 82.9461 155.499 82.5514 155.493 82.1362C155.488 81.721 155.484 81.3646 155.484 81.0673C155.484 80.948 155.49 80.8055 155.503 80.6397C155.514 80.4739 155.544 80.3176 155.592 80.1765C155.64 80.0339 155.712 79.912 155.815 79.8106C155.915 79.7105 156.053 79.6598 156.233 79.6598C156.375 79.6598 156.511 79.6982 156.643 79.7749C156.773 79.853 156.855 79.9517 156.892 80.0696C156.855 80.2491 156.826 80.5451 156.803 80.9604C156.78 81.3756 156.777 81.7963 156.793 82.2157C156.811 82.6391 156.859 83.0078 156.936 83.3298C157.014 83.6505 157.147 83.8109 157.337 83.8109C157.551 83.8109 157.766 83.7163 157.988 83.5244C158.207 83.3367 158.411 83.1106 158.602 82.8488C158.791 82.5884 158.955 82.3143 159.091 82.0279C159.228 81.7442 159.325 81.5017 159.386 81.2975Z" fill="#3A86C7"/><path d="M161.218 79.7482C161.052 79.7728 160.915 79.8825 160.809 80.0785C160.702 80.2758 160.617 80.5033 160.551 80.765C160.485 81.0254 160.439 81.2899 160.408 81.5572C160.38 81.8258 160.365 82.0354 160.365 82.1889C160.365 82.2259 160.37 82.2643 160.382 82.3054C160.393 82.3465 160.429 82.3685 160.489 82.3685C160.63 82.3685 160.78 82.2287 160.935 81.9477C161.088 81.6695 161.213 81.3653 161.307 81.0323C161.403 80.6979 161.451 80.3991 161.451 80.1319C161.451 79.8647 161.373 79.7372 161.218 79.7482ZM161.646 84.5228C161.979 84.5228 162.294 84.4049 162.591 84.1678C162.887 83.9294 163.151 83.6539 163.383 83.3387C163.614 83.0249 163.81 82.7056 163.971 82.3863C164.131 82.0642 164.247 81.823 164.319 81.6558C164.447 81.6791 164.553 81.7381 164.63 81.8326C164.706 81.9285 164.732 82.0286 164.711 82.1355C164.615 82.5288 164.463 82.9098 164.256 83.2757C164.047 83.6457 163.808 83.9705 163.534 84.2542C163.261 84.5379 162.958 84.764 162.625 84.9312C162.294 85.0984 161.948 85.1833 161.592 85.1833C161.189 85.1833 160.833 85.1121 160.524 84.9695C160.215 84.8257 159.954 84.631 159.741 84.3816C159.527 84.1322 159.366 83.843 159.259 83.5169C159.152 83.1907 159.099 82.8495 159.099 82.4918C159.099 82.2081 159.134 81.8765 159.206 81.4941C159.277 81.1145 159.393 80.7541 159.554 80.417C159.714 80.0785 159.925 79.7907 160.185 79.5522C160.448 79.3151 160.767 79.1973 161.147 79.1973C161.337 79.1973 161.503 79.2384 161.646 79.3206C161.788 79.4056 161.905 79.5152 161.994 79.6523C162.083 79.7879 162.148 79.9387 162.19 80.1059C162.231 80.2717 162.253 80.4444 162.253 80.6225C162.253 80.8349 162.207 81.0679 162.118 81.3173C162.029 81.5654 161.905 81.8038 161.744 82.0286C161.584 82.2547 161.398 82.4425 161.184 82.5905C160.969 82.7398 160.737 82.8125 160.489 82.8125H160.399C160.411 82.9454 160.441 83.1071 160.489 83.3004C160.536 83.4908 160.611 83.6772 160.711 83.8568C160.811 84.0377 160.937 84.1939 161.085 84.3254C161.235 84.4584 161.42 84.5228 161.646 84.5228Z" fill="#3A86C7"/><path d="M167.72 79.7841C167.755 79.9266 167.768 80.0856 167.755 80.2569C167.744 80.4282 167.702 80.5858 167.632 80.7283C167.572 80.8585 167.467 80.9545 167.32 81.0134C167.172 81.0723 167.032 81.0559 166.9 80.9599C166.852 80.9243 166.826 80.8804 166.821 80.827C166.814 80.7736 166.821 80.7174 166.837 80.6584C166.856 80.5981 166.874 80.5392 166.892 80.4789C166.91 80.42 166.925 80.372 166.937 80.3364C166.948 80.2651 166.966 80.1815 166.991 80.0883C167.013 79.991 167.028 79.9033 167.035 79.8197C167.04 79.7375 167.032 79.6676 167.007 79.6155C166.984 79.5621 166.937 79.5415 166.865 79.5525C166.818 79.5648 166.75 79.6306 166.661 79.7485C166.571 79.8691 166.477 80.0102 166.376 80.176C166.274 80.3419 166.177 80.5187 166.082 80.7023C165.985 80.8859 165.915 81.049 165.867 81.1915C165.653 81.8096 165.508 82.4715 165.432 83.1787C165.353 83.8858 165.345 84.5765 165.405 85.2535C165.381 85.3714 165.312 85.4495 165.2 85.4851C165.086 85.5221 164.959 85.5317 164.816 85.5221C164.674 85.5084 164.535 85.4783 164.398 85.4317C164.263 85.3851 164.157 85.3371 164.087 85.2891C164.05 85.0754 164.022 84.8122 163.997 84.4957C163.974 84.1818 163.959 83.8406 163.953 83.4719C163.946 83.1047 163.944 82.7223 163.944 82.3235V81.1559C163.944 80.7763 163.961 80.3898 163.997 79.9979C164.022 79.8691 164.109 79.7841 164.266 79.7485C164.419 79.7128 164.544 79.695 164.638 79.695C164.781 79.7074 164.905 79.7375 165.012 79.7841C165.121 79.8321 165.184 79.9321 165.208 80.0883C165.233 80.2542 165.244 80.4227 165.244 80.5954V81.1025C165.34 80.8051 165.469 80.4981 165.636 80.176C165.803 79.8554 166.01 79.5881 166.26 79.3743C166.378 79.2674 166.514 79.1989 166.669 79.1701C166.824 79.14 166.972 79.1427 167.115 79.1784C167.256 79.214 167.381 79.2825 167.488 79.3839C167.595 79.484 167.673 79.6183 167.72 79.7841Z" fill="#3A86C7"/><path fill-rule="evenodd" clip-rule="evenodd" d="M19.3011 91.9662H19.304C19.5466 91.6565 22.154 88.5324 27.9547 88.0805C34.1457 87.6007 39.4722 92.6496 40.0662 98.3596C40.3061 100.683 40.0411 102.429 39.3802 103.902C38.4431 105.986 36.6445 107.576 33.7442 109.367C28.6937 112.485 20.5366 110.89 17.5275 104.017C14.7611 97.6957 18.6541 92.7305 19.3011 91.9662ZM21.2421 93.559C21.2421 93.559 17.4857 97.6622 19.8254 103.012C22.1652 108.36 28.4957 109.66 32.425 107.233C36.3572 104.803 38.0332 103.071 37.5703 98.619C37.1074 94.167 32.9744 90.2088 28.1499 90.5826C23.3225 90.9592 21.2421 93.559 21.2421 93.559Z" fill="#3D7CA4"/><path fill-rule="evenodd" clip-rule="evenodd" d="M55.9224 87.5478L55.9239 87.5502C56.3163 87.5777 60.3643 87.9873 63.9884 92.5398C67.8543 97.4 66.6575 104.642 62.2617 108.333C60.4719 109.834 58.8773 110.593 57.2874 110.871C55.0368 111.262 52.7124 110.663 49.6044 109.263C44.1923 106.827 40.9435 99.1747 44.9495 92.8306C48.634 86.9969 54.9269 87.4401 55.9224 87.5478ZM55.6908 90.0484C55.6908 90.0484 50.1882 89.2354 47.0685 94.1716C43.9511 99.1063 46.4214 105.079 50.6325 106.975C54.8476 108.871 57.2211 109.289 60.6485 106.411C64.0759 103.533 65.0383 97.891 62.0257 94.1035C59.0093 90.3152 55.6908 90.0484 55.6908 90.0484Z" fill="#2E6A8F"/><path fill-rule="evenodd" clip-rule="evenodd" d="M34.7257 88.7049C34.9042 89.0954 35.4173 89.4078 35.8133 90.0996C36.1619 90.7049 36.4045 92.0271 36.24 92.571C36.0727 93.115 35.671 93.3633 34.9738 91.9908C34.2767 90.6184 33.8611 89.7565 33.3424 90.2168C32.8209 90.677 31.8979 90.8611 31.9174 90.161C31.9509 88.822 31.5186 89.2293 30.5649 89.3771C29.508 89.5389 28.3646 89.4552 28.4594 89.0619C28.5542 88.6686 29.7729 87.9015 30.6959 87.8095C31.0027 87.7788 32.135 87.7007 32.4836 87.4719C33.0748 87.0814 34.0285 84.7606 34.1122 84.1023C34.3018 82.6044 34.299 80.2054 33.9141 77.6838C33.4345 74.5317 33.1166 68.1581 33.1166 68.1581C33.1166 68.1581 33.0692 60.4924 33.1166 59.2625C33.164 58.0327 33.4373 55.9395 33.4373 55.9395C33.4373 55.9395 35.5122 64.6768 37.0571 67.55C38.6021 70.4228 39.8263 73.6 39.8263 73.6C39.8263 73.6 37.5647 80.3923 36.8954 82.264C36.2233 84.133 34.1735 87.5082 34.7257 88.7049Z" fill="#0C52A5"/><path fill-rule="evenodd" clip-rule="evenodd" d="M38.5688 39.2514L43.8619 38.0273C43.8619 38.0273 45.273 40.6882 45.22 42.4977C45.167 44.3069 44.0766 46.4624 43.4631 47.1142C42.8523 47.7664 41.3632 49.6024 41.1484 50.9726C40.9365 52.3431 40.6576 54.525 41.8819 56.1083C43.1061 57.6915 45.22 58.1105 45.22 58.1105C45.22 58.1105 42.4061 58.9315 42.4731 61.8852C42.54 64.839 42.6265 66.6448 45.22 69.2655C47.8135 71.8873 56.626 78.953 56.626 78.953L65.2628 89.8263C65.0425 89.9686 61.5035 87.4692 57.5156 83.2599C55.6666 81.3101 52.5851 78.8442 50.3345 77.8568C47.6406 76.674 45.51 77.4467 48.4689 84.2334C49.0322 85.5222 50.3959 87.3102 51.3329 87.352C52.2672 87.3939 53.5138 87.2879 54.1803 87.8513C54.844 88.412 55.2344 89.062 54.8439 89.2377C54.4563 89.4162 52.6102 88.7468 52.3537 88.6742C52.0943 88.5989 51.609 88.5961 51.5198 89.1122C51.4305 89.631 51.5756 90.1917 51.1684 90.3144C50.7585 90.4372 50.2621 89.9602 50.0724 89.79C49.88 89.6199 49.5927 89.2712 49.2385 89.6059C48.8844 89.9407 48.5553 90.4455 48.2625 90.6994C47.9948 90.9337 47.2809 91.765 46.8765 91.5697C46.2574 91.2684 47.0941 89.8849 47.8777 89.1233C48.6614 88.359 48.6111 87.8514 48.4968 87.472C48.3797 87.0898 47.6545 85.9071 46.8765 84.7495C46.1012 83.5919 43.6555 79.7145 43.6555 79.7145L40.652 74.9613C40.652 74.9613 36.611 68.188 34.7649 63.244C33.2924 59.2961 32.4112 54.3188 34.7649 49.967C37.1214 45.6155 38.4656 43.3435 38.5688 42.4977C38.672 41.6517 38.5688 39.2514 38.5688 39.2514Z" fill="#3A86C7"/><path fill-rule="evenodd" clip-rule="evenodd" d="M65.3101 89.824C64.8277 90.1281 60.3211 83.902 56.3945 80.1084C52.4679 76.3147 49.9747 74.2812 46.8262 72.482C44.4084 71.1012 41.7033 68.0055 41.1734 65.1634C40.6464 62.3209 40.9392 58.9311 44.4307 58.2C47.9223 57.4695 50.8895 60.4188 52.9978 62.9848C55.1089 65.5511 58.8123 71.5615 60.4354 75.4918C62.0584 79.4222 66.3894 89.1378 65.3101 89.824Z" fill="#69CBDB"/><path fill-rule="evenodd" clip-rule="evenodd" d="M40.6379 11.638C40.4175 13.7854 39.698 22.352 39.4721 24.5214C39.4666 24.5986 39.4163 24.6996 39.2825 24.655C39.1486 24.6106 40.2056 27.3987 40.2056 27.3987L43.5855 37.3029L43.131 33.1718L42.5789 28.0096C42.5789 28.0096 41.1231 14.3667 40.7996 11.638C40.794 11.5842 40.6434 11.5842 40.6379 11.638Z" fill="#205DAB"/><path fill-rule="evenodd" clip-rule="evenodd" d="M38.5796 39.2471L43.8727 38.0167C43.8727 38.0167 36.898 17.4903 35.4757 13.3914C35.459 13.3449 35.3252 13.3747 35.3307 13.4238C35.8467 17.7329 38.5796 39.2471 38.5796 39.2471Z" fill="#0C52A5"/><path fill-rule="evenodd" clip-rule="evenodd" d="M41.2832 42.4057C41.2907 41.6235 41.8349 40.9902 42.506 40.9902C43.1697 40.9902 43.7141 41.6235 43.7215 42.4057H41.2832Z" fill="#1E76AD"/><path fill-rule="evenodd" clip-rule="evenodd" d="M43.7122 42.4048C43.7047 43.1871 43.1605 43.8203 42.4893 43.8203C41.8257 43.8203 41.2813 43.1871 41.2738 42.4048H43.7122Z" fill="#69CBDA"/></svg>